# xmcd
#
# Track frame offsets: 
#        150
#        15658
#        32773
#        51833
#        66130
#        77047
#        91857
#        111068
#        131072
#        142792
#        161460
#        177372
#        197621
#        213085
#        239884
#
# Disc length: 3392 seconds
#
# Revision: 0
# Processed by: cddbd v1.5.2PL0 Copyright (c) Steve Scherf et al.
# Submitted via: ExactAudioCopy v0.99pb5
#
DISCID=c60d3e0f
DTITLE=Bergen Blues Band - The Best of Bergen Blues Band
DYEAR=2010
DGENRE=Blues
TTITLE0=Jump'n Shout'n Dance
TTITLE1=Truckdriver
TTITLE2=Airport Blues
TTITLE3=Brand New Microphone
TTITLE4=Depression
TTITLE5=Hey Mama
TTITLE6=Bad Condition
TTITLE7=Behind My Back
TTITLE8=Another Blues
TTITLE9=Meanest Blues in Town
TTITLE10=The Night is Easy
TTITLE11=Long Summer Gone
TTITLE12=Trouble
TTITLE13=I Can Do it Tomorrow
TTITLE14=Lazy
EXTD=
EXTT0=
EXTT1=
EXTT2=
EXTT3=
EXTT4=
EXTT5=
EXTT6=
EXTT7=
EXTT8=
EXTT9=
EXTT10=
EXTT11=
EXTT12=
EXTT13=
EXTT14=
PLAYORDER=
